<?xml version="1.0" standalone="no"?>
<!DOCTYPE svg PUBLIC "-//W3C//DTD SVG 20010904//EN"
 "http://www.w3.org/TR/2001/REC-SVG-20010904/DTD/svg10.dtd">
<svg version="1.0" xmlns="http://www.w3.org/2000/svg"
 width="1400.000000pt" height="383.000000pt" viewBox="0 0 1400.000000 383.000000"
 preserveAspectRatio="xMidYMid meet">

<g transform="translate(0.000000,383.000000) scale(0.100000,-0.100000)"
fill="#000000" stroke="none">
<path d="M470 1460 l0 -1100 759 0 759 0 17 26 c9 14 23 33 30 42 47 58 165
213 165 217 0 3 11 18 24 33 14 15 57 70 97 122 40 52 76 99 81 105 5 5 36 46
69 90 34 44 70 92 82 107 11 16 26 28 33 28 6 0 31 -26 55 -57 24 -32 49 -63
54 -69 6 -6 19 -23 30 -39 11 -15 47 -62 80 -104 33 -42 73 -94 90 -116 16
-22 31 -42 35 -45 3 -3 32 -41 65 -85 33 -44 65 -85 70 -91 6 -6 37 -46 70
-88 49 -63 64 -76 88 -76 l29 0 -51 64 c-52 67 -79 102 -190 247 -103 133
-125 163 -136 175 -5 6 -21 26 -35 44 -14 19 -56 74 -95 124 -38 50 -83 108
-98 129 l-28 37 50 68 c28 37 63 82 78 101 15 19 46 60 68 91 22 31 54 74 72
96 35 42 92 118 108 142 6 9 18 25 28 36 10 12 39 50 65 86 25 36 59 79 74 95
35 38 35 47 1 43 -19 -2 -41 -22 -80 -73 -81 -105 -244 -320 -368 -484 -60
-80 -117 -147 -126 -149 -10 -2 -47 40 -105 119 -49 67 -94 126 -99 133 -6 6
-22 27 -35 46 -13 19 -28 40 -33 45 -11 14 -130 174 -206 278 -54 75 -67 87
-92 87 -36 0 -36 -7 -1 -45 15 -17 32 -38 37 -47 9 -14 350 -468 382 -508 48
-59 113 -153 113 -161 0 -10 -35 -59 -124 -174 -17 -22 -35 -45 -41 -51 -5 -7
-19 -24 -30 -39 -11 -16 -47 -63 -80 -105 -33 -42 -70 -90 -82 -106 -12 -16
-31 -40 -42 -54 -11 -14 -46 -59 -78 -100 -32 -41 -69 -90 -82 -107 l-22 -33
-725 0 -724 0 0 535 c0 294 3 535 8 535 4 0 300 1 657 3 l650 2 3 23 3 22
-660 0 -661 0 0 490 0 490 702 2 701 3 3 23 4 22 -730 0 -730 0 0 -1100z"/>
<path d="M12905 2030 c-176 -25 -301 -121 -363 -280 -18 -46 -20 -236 -3 -281
20 -53 52 -111 80 -145 26 -32 125 -114 137 -114 3 0 18 -8 32 -18 15 -10 61
-33 102 -51 253 -112 297 -141 319 -209 34 -102 -63 -192 -207 -192 -117 0
-211 47 -277 137 -16 23 -35 42 -42 42 -12 1 -220 -115 -242 -135 -12 -11 -10
-19 13 -55 61 -92 159 -177 256 -222 57 -26 218 -57 295 -57 151 0 318 57 398
136 74 73 102 127 128 247 10 48 10 74 0 135 -18 107 -57 185 -128 253 -42 40
-190 139 -209 139 -4 0 -30 11 -58 24 -86 40 -145 66 -151 66 -4 0 -33 18 -65
40 -47 32 -62 48 -71 80 -18 61 -2 116 44 153 33 27 45 31 100 31 72 0 114
-23 168 -90 17 -21 35 -38 40 -37 4 2 56 34 115 73 59 38 111 70 116 70 16 0
7 19 -36 78 -52 70 -135 130 -221 160 -67 23 -194 33 -270 22z"/>
<path d="M11940 1453 c0 -587 -1 -603 -42 -664 -33 -51 -169 -64 -227 -22 -25
19 -80 85 -100 120 -8 15 -11 14 -37 -4 -16 -11 -33 -22 -39 -24 -32 -12 -185
-114 -185 -122 0 -20 60 -103 107 -149 121 -117 310 -164 496 -122 40 9 91 26
115 37 45 21 152 112 152 129 0 5 8 22 19 36 10 15 28 65 40 112 21 83 21 103
19 660 l-3 575 -157 3 -158 3 0 -568z"/>
<path d="M3985 1965 c-82 -13 -143 -31 -160 -46 -5 -5 -17 -9 -27 -9 -10 0
-18 -3 -18 -8 0 -4 -15 -14 -32 -21 -38 -17 -178 -150 -178 -168 0 -7 -4 -13
-8 -13 -8 0 -47 -72 -77 -143 -32 -75 -40 -42 -43 176 -2 199 -3 207 -22 207
-20 0 -20 -10 -20 -970 0 -963 0 -970 20 -970 20 0 20 7 21 378 0 207 4 386 8
397 7 17 11 13 31 -30 56 -126 78 -163 132 -221 57 -61 179 -144 211 -144 8 0
18 -4 21 -9 23 -36 341 -49 431 -17 100 34 179 81 241 143 66 64 140 169 151
213 3 14 9 27 13 30 15 12 60 172 71 255 15 112 7 325 -16 420 -92 389 -392
609 -750 550z m278 -59 c110 -29 217 -105 294 -210 40 -54 57 -86 98 -181 46
-108 72 -320 55 -461 -13 -111 -35 -212 -57 -264 -65 -152 -122 -231 -223
-308 -19 -15 -37 -29 -40 -32 -21 -24 -125 -56 -227 -71 -109 -15 -255 7 -351
53 -37 18 -69 34 -72 38 -3 3 -29 25 -58 49 -74 61 -147 170 -192 286 -44 112
-58 422 -26 565 27 118 59 194 117 280 93 137 224 231 359 259 30 6 64 13 75
15 37 9 189 -2 248 -18z"/>
<path d="M5620 1969 c-120 -14 -186 -37 -282 -101 -77 -52 -131 -117 -182
-222 l-43 -88 -7 52 c-4 29 -7 109 -6 179 1 69 1 132 1 139 -1 6 -10 12 -21
12 -20 0 -20 -7 -20 -790 0 -783 0 -790 20 -790 20 0 20 7 20 448 0 433 7 583
31 667 40 141 68 193 149 282 41 44 129 113 145 113 4 0 21 6 38 14 60 26 97
35 182 42 47 4 88 10 90 14 9 15 -7 40 -24 39 -9 -1 -50 -5 -91 -10z"/>
<path d="M6363 1965 c-46 -7 -98 -18 -115 -25 -78 -30 -128 -54 -128 -62 0 -4
-7 -8 -15 -8 -9 0 -53 -37 -98 -83 -66 -67 -92 -103 -133 -183 -28 -54 -53
-108 -57 -119 -48 -164 -62 -289 -47 -446 20 -208 67 -351 158 -479 31 -43
108 -114 142 -132 14 -7 27 -15 30 -18 5 -5 53 -28 85 -40 95 -37 343 -49 455
-21 101 24 217 89 297 164 40 38 73 75 73 82 0 8 3 15 8 17 23 10 86 166 96
241 7 46 6 48 -15 45 -17 -2 -25 -12 -31 -38 -66 -289 -236 -443 -530 -480
-75 -10 -116 -10 -180 -1 -159 23 -242 61 -348 163 -107 101 -184 310 -192
518 l-3 85 663 0 662 0 0 70 c0 96 -28 251 -59 330 -39 98 -116 210 -187 274
-80 71 -198 126 -299 140 -135 19 -147 19 -232 6z m272 -59 c77 -21 158 -61
201 -100 21 -20 42 -36 45 -36 4 0 26 -26 50 -57 24 -32 46 -60 49 -63 7 -5
29 -54 53 -112 29 -71 49 -163 54 -255 l6 -93 -636 0 c-418 0 -638 3 -642 10
-12 20 29 239 56 300 7 14 17 36 22 50 6 14 31 56 54 93 100 157 248 255 428
281 51 7 208 -3 260 -18z"/>
<path d="M7825 1969 c-38 -4 -90 -13 -115 -19 -121 -30 -238 -119 -286 -217
-25 -52 -28 -68 -28 -164 0 -95 2 -111 28 -162 41 -84 130 -147 259 -184 29
-8 68 -19 87 -24 19 -6 51 -14 70 -19 188 -46 382 -100 415 -115 95 -44 170
-109 202 -173 26 -53 25 -220 -1 -277 -25 -52 -119 -144 -176 -172 -119 -57
-274 -81 -421 -63 -56 6 -112 15 -125 20 -13 5 -24 8 -24 6 0 -2 -17 3 -37 11
-21 7 -46 16 -55 20 -10 3 -18 9 -18 13 0 5 -9 12 -21 15 -91 29 -193 211
-202 360 -3 54 -5 60 -27 63 -23 4 -23 3 -17 -75 6 -93 43 -207 88 -272 52
-75 146 -139 249 -170 25 -7 59 -17 75 -23 17 -5 86 -11 155 -15 296 -13 504
77 593 256 30 61 32 72 32 171 0 120 -18 170 -84 238 -79 82 -149 113 -396
177 -235 61 -286 75 -363 101 -96 32 -131 53 -181 110 -44 50 -61 104 -61 193
0 124 68 230 186 289 89 44 153 56 299 56 196 -1 307 -37 400 -130 67 -68 114
-178 115 -270 0 -32 21 -51 42 -38 11 7 3 97 -13 154 -22 73 -69 157 -108 193
-49 46 -133 91 -205 112 -40 11 -254 39 -260 34 0 -1 -32 -5 -71 -10z"/>
<path d="M9255 1969 c-99 -10 -235 -52 -235 -71 0 -5 -7 -8 -15 -8 -25 0 -126
-110 -150 -164 -30 -67 -38 -147 -25 -229 21 -133 84 -200 250 -262 46 -17
122 -38 390 -106 159 -40 255 -73 278 -96 8 -8 26 -20 40 -27 118 -61 163
-265 91 -407 -24 -49 -115 -130 -180 -162 -69 -33 -111 -43 -234 -58 -235 -28
-478 55 -570 194 -48 72 -77 158 -83 245 -4 69 -6 72 -30 72 -25 0 -25 0 -19
-69 7 -85 21 -137 57 -217 77 -168 246 -258 510 -271 272 -13 468 58 566 207
48 72 56 99 62 197 6 111 -12 176 -66 242 -71 87 -164 131 -417 197 -414 107
-471 129 -538 203 -98 109 -85 314 28 427 33 33 121 79 190 100 83 24 304 24
394 0 93 -25 158 -61 212 -118 70 -74 109 -164 109 -254 0 -29 5 -44 16 -48
30 -11 37 5 30 69 -12 119 -49 198 -128 278 -32 31 -65 57 -73 57 -8 0 -15 4
-15 9 0 17 -158 60 -241 66 -46 4 -93 8 -104 9 -11 2 -56 -1 -100 -5z"/>
</g>
</svg>
